<?xml version="1.0" encoding="UTF-8"?>
<svg version="1.1" xmlns="http://www.w3.org/2000/svg" width="500" height="500">
<path d="M0 0 C0.75338654 -0.00067474 1.50677307 -0.00134949 2.2829895 -0.00204468 C54.18855015 0.07154511 101.40457415 20.59879995 138.8125 56.25 C139.64265625 57.01570313 140.4728125 57.78140625 141.328125 58.5703125 C173.96399593 89.62702838 195.78926981 138.20821486 197.10101318 183.09179688 C197.18249801 187.26986057 197.19723073 191.44624175 197.1875 195.625 C197.18668427 196.94559921 197.18668427 196.94559921 197.18585205 198.2928772 C197.14529712 212.60633354 196.21507559 226.29552907 192.8125 240.25 C192.49901611 241.57837891 192.49901611 241.57837891 192.17919922 242.93359375 C181.47939173 287.11137567 154.18563567 329.07973388 116.8125 355.25 C116.24917969 355.65234863 115.68585938 356.05469727 115.10546875 356.46923828 C93.69246069 371.70404751 69.46292791 382.48809528 43.8125 388.25 C42.94334961 388.44609863 42.07419922 388.64219727 41.17871094 388.84423828 C16.00425619 394.25139637 -11.96121461 394.69291859 -37.1875 389.25 C-37.89213379 389.11078125 -38.59676758 388.9715625 -39.32275391 388.828125 C-76.83668533 381.41287981 -109.70542254 362.44148267 -137.1875 336.25 C-138.01765625 335.48429687 -138.8478125 334.71859375 -139.703125 333.9296875 C-161.53568288 313.15354371 -176.43055794 285.43425762 -186.1875 257.25 C-186.44015625 256.52876953 -186.6928125 255.80753906 -186.953125 255.06445312 C-197.84831005 223.31709448 -199.07806428 185.83911137 -191.1875 153.25 C-190.97319336 152.35619629 -190.75888672 151.46239258 -190.53808594 150.54150391 C-181.70150692 114.85432998 -164.13699651 85.03466087 -139.1875 58.25 C-138.50300781 57.51136719 -137.81851563 56.77273437 -137.11328125 56.01171875 C-107.97787427 25.69150779 -66.45137361 6.82230424 -25.1875 1.25 C-24.17610962 1.09966309 -24.17610962 1.09966309 -23.14428711 0.94628906 C-15.47289023 -0.07450531 -7.72532802 0.00622389 0 0 Z M-68.1875 66.25 C-68.84363281 66.49621094 -69.49976563 66.74242188 -70.17578125 66.99609375 C-80.49407949 71.50408813 -86.15406978 80.04701369 -90.1875 90.25 C-93.91767114 101.88885131 -92.67234474 113.73756647 -89.1875 125.25 C-88.8575 125.25 -88.5275 125.25 -88.1875 125.25 C-88.23970703 123.43628906 -88.23970703 123.43628906 -88.29296875 121.5859375 C-88.57370843 107.75738155 -88.60773809 93.40659553 -79.1875 82.25 C-69.98488747 73.59754365 -58.53371298 70.7145031 -46.16015625 71.01171875 C-43.12527827 71.25498755 -40.18110293 71.70124715 -37.1875 72.25 C-41.79144604 66.68689853 -47.8100013 65.25783965 -54.6875 64.4375 C-59.58889709 64.11299371 -63.59632868 64.51766113 -68.1875 66.25 Z M26.0625 76.375 C14.76179813 88.40477941 10.52555995 102.11759282 10.8125 118.25 C12.56170156 114.95127742 13.84013838 111.56552663 15.125 108.0625 C17.26420895 102.47053274 19.61281449 97.30974366 22.8125 92.25 C23.24046875 91.56292969 23.6684375 90.87585938 24.109375 90.16796875 C31.02347958 80.01044994 41.66169091 74.9363743 53.4375 72.5 C60.3722016 71.9863184 66.93347642 72.24941475 73.8125 73.25 C68.19971599 66.95687853 62.62489393 64.82835366 54.4140625 64.2578125 C43.39299875 64.22471621 34.02985982 68.9216634 26.0625 76.375 Z M-88.1875 125.25 C-87.1875 127.25 -87.1875 127.25 -87.1875 127.25 Z M101.8125 151.25 C97.54269074 157.39459907 95.66096594 162.521139 95.75 170 C95.75902344 170.98484375 95.76804687 171.9696875 95.77734375 172.984375 C95.78894531 173.73203125 95.80054688 174.4796875 95.8125 175.25 C96.1425 175.25 96.4725 175.25 96.8125 175.25 C97.06 174.13625 97.3075 173.0225 97.5625 171.875 C100.14033225 161.81256515 103.54664927 153.06435741 112.7578125 147.45703125 C120.70052327 143.34906904 126.80848109 142.09142729 135.625 142.1875 C136.80739258 142.19426758 136.80739258 142.19426758 138.01367188 142.20117188 C139.94664761 142.21288688 141.87958393 142.23082002 143.8125 142.25 C139.81671222 138.25421222 134.47213785 138.0717141 129.0625 137.875 C117.53007835 138.14821198 109.41925997 142.67012298 101.8125 151.25 Z M-152.1875 152.25 C-159.36854825 161.27608652 -162.05956228 169.79579733 -161.1875 181.25 C-160.6951487 183.70751208 -160.02968286 185.88136069 -159.1875 188.25 C-158.22601914 185.36555741 -158.02805188 183.25856272 -157.875 180.25 C-156.88381371 169.05107431 -152.86965037 161.16053947 -144.49609375 153.75390625 C-135.99668404 147.10819611 -125.55112261 146.4106165 -115.1875 145.25 C-126.7519527 137.54036487 -142.91125289 143.6729675 -152.1875 152.25 Z M-67.1875 199.25 C-68.20457031 199.8275 -69.22164062 200.405 -70.26953125 201 C-76.94544863 205.03356127 -82.56730494 209.86702097 -88.1875 215.25 C-88.9609375 215.94867188 -89.734375 216.64734375 -90.53125 217.3671875 C-99.55869157 225.80722705 -106.84199108 237.27563748 -110.1875 249.25 C-109.77062586 251.37010192 -109.77062586 251.37010192 -109.1875 253.25 C-108.46046875 251.58324219 -108.46046875 251.58324219 -107.71875 249.8828125 C-103.7845385 241.07073383 -99.80600177 233.39852553 -93.1875 226.25 C-92.69378906 225.65445313 -92.20007813 225.05890625 -91.69140625 224.4453125 C-69.17443797 199.06254826 -24.86056759 192.46820905 6.8125 190.25 C28.60667175 189.08208704 50.31590531 192.11177076 69.8125 202.25 C70.8025 201.755 70.8025 201.755 71.8125 201.25 C56.65783657 191.44404131 39.62111933 185.92557382 21.8125 183.25 C20.94625 183.11980469 20.08 182.98960937 19.1875 182.85546875 C-10.58600291 179.36638638 -41.07326596 184.40783132 -67.1875 199.25 Z M-111.1875 253.25 C-110.1875 256.25 -110.1875 256.25 -110.1875 256.25 Z " fill="#E9E4B6" transform="translate(253.1875,57.75)"/>
<path d="M0 0 C12.82836461 13.57939228 20.1384632 28.1440282 20.25 46.8125 C20.2809375 48.08963867 20.2809375 48.08963867 20.3125 49.39257812 C20.39100382 62.2770171 14.64241803 72.69164222 6 82 C-8.65947121 95.13674445 -27.61554368 97.37774638 -46.5 97.1875 C-47.71558594 97.18685547 -48.93117188 97.18621094 -50.18359375 97.18554688 C-69.77103968 97.09147696 -69.77103968 97.09147696 -76.01293945 95.48046875 C-92.46146605 91.50323563 -112.08901224 95.49977764 -128.40307617 98.54345703 C-147.15521591 101.84011035 -166.71503912 101.88847824 -183 91 C-193.1467189 83.50154497 -200.1172221 73.35335987 -203 61 C-203.32107664 57.46449698 -203.2889616 53.983453 -203.1875 50.4375 C-203.17396484 49.52419922 -203.16042969 48.61089844 -203.14648438 47.66992188 C-203.11155315 45.44596741 -203.06251586 43.22332048 -203 41 C-202.34 41 -201.68 41 -201 41 C-200.91492188 40.17757812 -200.82984375 39.35515625 -200.7421875 38.5078125 C-197.32985545 22.38005367 -184.41259244 7.86452342 -171 -1 C-148.09432406 -15.48321621 -121.68472452 -21.66107051 -95 -25 C-94.03191406 -25.13019531 -93.06382812 -25.26039063 -92.06640625 -25.39453125 C-59.59039755 -29.10183818 -24.70121268 -22.42788679 0 0 Z " fill="#F3E8DE" transform="translate(344,273)"/>
<path d="M0 0 C2.28218937 0.65238113 2.28218937 0.65238113 4.2578125 -0.5859375 C4.2578125 0.0740625 4.2578125 0.7340625 4.2578125 1.4140625 C4.82757813 1.65382812 5.39734375 1.89359375 5.984375 2.140625 C16.09680001 7.80497303 21.67998564 20.05125822 25.1328125 30.6015625 C28.55450357 44.80055598 26.53391142 59.02306309 19.5078125 71.7890625 C14.35415475 79.72569543 7.57161836 85.24298224 -1.7421875 87.4140625 C-12.87267854 88.66802026 -22.30274781 86.87728006 -31.4296875 80.2890625 C-39.51821087 73.51963523 -47.19242229 64.48861843 -48.4921875 53.7265625 C-48.60024836 51.95706596 -48.68187204 50.18582918 -48.7421875 48.4140625 C-48.79375 47.41246094 -48.8453125 46.41085938 -48.8984375 45.37890625 C-49.28531665 32.11217541 -47.19037484 19.37753324 -37.87890625 9.421875 C-27.80378141 0.58005169 -13.0038647 -2.77860357 0 0 Z " fill="#F3E8DE" transform="translate(212.7421875,128.5859375)"/>
<path d="M0 0 C0.66 -0.33 1.32 -0.66 2 -1 C13.52251559 12.88610853 16.50591624 25.17405646 15.31787109 43.22216797 C13.68763389 57.468588 5.48016293 69.88533926 -5.28515625 79.015625 C-14.71301498 85.9067793 -24.63656262 87.45715226 -36 86 C-39.76989337 84.84003281 -42.77656115 83.25461307 -46 81 C-46.64324219 80.56558594 -47.28648437 80.13117188 -47.94921875 79.68359375 C-56.69094926 73.02774254 -60.79742766 62.49816929 -62.625 52.00390625 C-63.20865001 47.32862648 -63.16370037 42.70183847 -63 38 C-62.34 39.32 -61.68 40.64 -61 42 C-60.69707031 41.16597656 -60.39414062 40.33195312 -60.08203125 39.47265625 C-54.63129899 24.83115083 -48.09349252 11.89809988 -34 4 C-22.66952477 -1.12754656 -12.14197282 -1.73456755 0 0 Z " fill="#F3E8DE" transform="translate(326,130)"/>
<path d="M0 0 C13.87107295 12.89486309 24.63568808 29.9480212 25.8515625 49.26171875 C26.0730514 65.31966415 21.48937436 79.26658438 11.03515625 91.65234375 C-3.15386627 105.81814365 -22.2585008 111.31688143 -41.87927246 111.40844727 C-44.07864619 111.40028173 -46.27735374 111.37528827 -48.4765625 111.34765625 C-50.02652879 111.33898236 -51.57649627 111.33052112 -53.12646484 111.32226562 C-63.12486263 111.2360895 -72.9619341 110.58312717 -82.90234375 109.5 C-95.72212704 108.11814502 -107.27065579 109.40116346 -119.9140625 111.53515625 C-143.72495723 115.54759451 -168.04193864 117.32142294 -189.3515625 104.03515625 C-201.24213534 95.25567849 -208.11880436 83.95723882 -211.96484375 69.7734375 C-213.70550901 57.44812084 -213.33941094 44.51606184 -208.3515625 33.03515625 C-207.85398438 31.88789063 -207.35640625 30.740625 -206.84375 29.55859375 C-193.84588914 1.8096722 -169.66490448 -15.60452694 -141.55078125 -25.875 C-93.74035353 -42.16206878 -37.91615918 -33.98810671 0 0 Z M-160.3515625 -8.96484375 C-161.36863281 -8.38734375 -162.38570312 -7.80984375 -163.43359375 -7.21484375 C-170.10951113 -3.18128248 -175.73136744 1.65217722 -181.3515625 7.03515625 C-182.125 7.73382813 -182.8984375 8.4325 -183.6953125 9.15234375 C-195.14349484 19.85561012 -204.82668184 36.69556822 -205.72265625 52.63671875 C-206.1149901 68.67634296 -202.55109447 80.82036062 -191.6171875 92.9609375 C-181.40845111 102.79884372 -167.62934793 107.4352843 -153.6640625 107.41015625 C-152.83970703 107.41072021 -152.01535156 107.41128418 -151.16601562 107.41186523 C-138.10780691 107.19588076 -122.97936509 105.98254807 -110.359375 102.48266602 C-107.54676887 101.85578043 -104.85604138 101.90522652 -101.9765625 101.90234375 C-100.74421875 101.90105469 -99.511875 101.89976562 -98.2421875 101.8984375 C-96.31632812 101.90423828 -96.31632812 101.90423828 -94.3515625 101.91015625 C-93.06765625 101.90628906 -91.78375 101.90242188 -90.4609375 101.8984375 C-89.22859375 101.89972656 -87.99625 101.90101563 -86.7265625 101.90234375 C-85.03660156 101.90403564 -85.03660156 101.90403564 -83.3125 101.90576172 C-80.76181666 102.01722793 -78.79109403 102.38312114 -76.3515625 103.03515625 C-50.80372516 105.91262787 -20.50040659 107.56706761 1.0859375 91.22265625 C9.39173103 84.048851 16.04975042 75.11938665 17.6484375 64.03515625 C17.81419741 60.78417142 17.83353015 57.53989182 17.8359375 54.28515625 C17.84818359 53.42921875 17.86042969 52.57328125 17.87304688 51.69140625 C17.90735992 36.59366828 11.68243285 24.88709511 2.6484375 13.03515625 C2.18953125 12.4215625 1.730625 11.80796875 1.2578125 11.17578125 C-16.86795605 -11.53351498 -48.81255644 -22.4567421 -76.7265625 -25.71484375 C-78.59984785 -25.83047865 -80.4755727 -25.90799557 -82.3515625 -25.96484375 C-83.06441406 -25.990625 -83.77726562 -26.01640625 -84.51171875 -26.04296875 C-111.32711243 -26.90381606 -136.86916934 -22.31119118 -160.3515625 -8.96484375 Z " fill="#805C41" transform="translate(346.3515625,265.96484375)"/>
<path d="M0 0 C6.8747077 5.53317557 12.39471326 13.02650676 13.51025391 21.91357422 C14.4936018 33.79230836 12.89028445 42.84590234 5.19921875 52.24609375 C-0.47719615 58.23315822 -8.41199649 62.51109262 -16.7421875 63.171875 C-27.51775685 63.39661245 -36.64874628 61.42830997 -44.73828125 53.93359375 C-52.55656698 45.19334036 -54.93790569 36.5118111 -54.73828125 24.93359375 C-54.07828125 25.26359375 -53.41828125 25.59359375 -52.73828125 25.93359375 C-52.47015625 25.17175781 -52.20203125 24.40992188 -51.92578125 23.625 C-47.47928488 11.90906712 -41.94890832 5.39601281 -30.5703125 0.02734375 C-22.0005837 -3.28234461 -8.0435794 -5.29036308 0 0 Z " fill="#F3E8DE" transform="translate(402.73828125,201.06640625)"/>
<path d="M0 0 C6.53569131 9.19374758 9.10238829 17.72171983 8 29 C6.22083061 37.26525529 2.21268711 44.2590355 -4 50 C-13.86340184 56.29415526 -23.37202009 58.2729578 -35 57 C-42.66818421 54.48584124 -48.99367022 50.33112456 -54 44 C-54.64775391 43.18402344 -54.64775391 43.18402344 -55.30859375 42.3515625 C-59.29176544 36.48017447 -58.54499895 30.4879933 -57.4921875 23.75 C-55.2927704 12.82875645 -50.60480967 4.13571562 -41.1953125 -2.21875 C-35.51835561 -5.32812058 -29.29655415 -6.70242741 -23 -8 C-22.17886719 -8.18046875 -21.35773438 -8.3609375 -20.51171875 -8.546875 C-12.39814218 -9.94818356 -5.42578066 -6.04168008 0 0 Z " fill="#F3E8DE" transform="translate(152,211)"/>
<path d="M0 0 C4.5116434 4.5116434 4.27054361 12.38595218 4.32226562 18.4609375 C4.31904297 19.29882812 4.31582031 20.13671875 4.3125 21 C4.32861328 21.83789062 4.34472656 22.67578125 4.36132812 23.5390625 C4.37123397 36.33740832 -1.42222175 46.76126281 -10 56 C-24.65947121 69.13674445 -43.61554368 71.37774638 -62.5 71.1875 C-63.71558594 71.18685547 -64.93117188 71.18621094 -66.18359375 71.18554688 C-85.77103968 71.09147696 -85.77103968 71.09147696 -92.01293945 69.48046875 C-108.46146605 65.50323563 -128.08901224 69.49977764 -144.40307617 72.54345703 C-163.11253011 75.83260612 -182.77162591 75.92931316 -199 65 C-204.72793239 60.54848709 -208.99876577 56.69506097 -212 50 C-210.02 50.33 -208.04 50.66 -206 51 C-206 51.66 -206 52.32 -206 53 C-205.43410156 53.12503906 -204.86820313 53.25007813 -204.28515625 53.37890625 C-201.87646394 54.03357647 -199.72411352 54.93922556 -197.4375 55.9375 C-188.51588351 59.48294008 -180.02884139 60.19511876 -170.5 60.3125 C-169.20098755 60.33908691 -169.20098755 60.33908691 -167.87573242 60.36621094 C-162.15873638 60.35975531 -157.32424921 59.38551633 -151.85791016 57.76391602 C-146.7918705 56.40976959 -141.64215848 55.87130467 -136.4375 55.3125 C-135.26856201 55.18657471 -134.09962402 55.06064941 -132.89526367 54.9309082 C-115.47965954 53.20442674 -98.32051983 53.63396797 -80.92407227 55.27905273 C-58.30208763 57.33457474 -35.8801937 58.05208223 -16.7421875 44.13671875 C-15 43 -15 43 -13 43 C-13 42.34 -13 41.68 -13 41 C-12.29875 40.525625 -11.5975 40.05125 -10.875 39.5625 C-5.79679465 35.03627349 -1.37245345 27.44774082 -0.79467773 20.5480957 C-0.73969116 19.12630005 -0.73969116 19.12630005 -0.68359375 17.67578125 C-0.64169922 16.64775391 -0.59980469 15.61972656 -0.55664062 14.56054688 C-0.51732422 13.48869141 -0.47800781 12.41683594 -0.4375 11.3125 C-0.37272461 9.68731445 -0.37272461 9.68731445 -0.30664062 8.02929688 C-0.20053162 5.35299209 -0.09847639 2.67659474 0 0 Z " fill="#E5C1A6" transform="translate(360,299)"/>
<path d="M0 0 C10.96495497 6.88933407 18.05768722 19.20529928 21.01171875 31.703125 C21.23291099 33.32160477 21.39604974 34.94870073 21.51171875 36.578125 C21.63160156 38.14046875 21.63160156 38.14046875 21.75390625 39.734375 C22.41241198 56.93299528 16.83193894 74.12077206 5.26171875 87.015625 C0.31288654 92.24778404 -5.08903775 96.2821291 -11.48828125 99.578125 C-12.17921875 99.93648438 -12.87015625 100.29484375 -13.58203125 100.6640625 C-22.36058754 104.34430341 -34.51265439 103.94850589 -43.48828125 101.015625 C-54.85604306 96.08959488 -62.73897656 87.48928659 -67.30078125 76.078125 C-68.05798309 73.92109606 -68.78995832 71.75492852 -69.48828125 69.578125 C-69.85953125 68.43730469 -69.85953125 68.43730469 -70.23828125 67.2734375 C-74.66101057 50.99533652 -70.15277428 34.29725441 -62.46484375 19.8046875 C-48.95668174 -2.24618567 -23.5902492 -12.57183265 0 0 Z M-50.41796875 16.0234375 C-56.12488886 23.06556156 -60.14757565 30.84168861 -62.48828125 39.578125 C-62.69195312 40.22007812 -62.895625 40.86203125 -63.10546875 41.5234375 C-66.58038062 53.28101603 -64.31966898 66.01821528 -59.17578125 76.953125 C-54.20479924 86.04208028 -47.48269858 92.24665256 -37.48828125 95.578125 C-24.8249406 96.60527893 -14.8786472 95.31436796 -4.74121094 86.90185547 C1.54279339 81.33719911 5.93526396 75.20922352 9.51171875 67.578125 C10.15947266 66.28261719 10.15947266 66.28261719 10.8203125 64.9609375 C15.85442672 52.94177206 15.76672544 35.07585648 10.859375 23.02734375 C8.53601643 18.80489208 5.64708011 15.21545307 2.51171875 11.578125 C1.52171875 10.093125 1.52171875 10.093125 0.51171875 8.578125 C-17.78728998 -2.11402835 -35.78489387 0.44629327 -50.41796875 16.0234375 Z " fill="#7F5B3F" transform="translate(327.48828125,120.421875)"/>
<path d="M0 0 C7.32393074 5.46683261 11.88158519 11.9762979 16.46484375 19.83984375 C16.86832031 20.52046875 17.27179688 21.20109375 17.6875 21.90234375 C24.89237217 35.05192033 25.92472053 52.5796377 21.83984375 66.90234375 C16.64493564 81.07027496 9.88068159 90.23598653 -3.8984375 96.7109375 C-13.10419201 100.65236425 -25.80022469 100.4568602 -35.09765625 96.83984375 C-49.85743755 89.4805099 -59.75967328 77.09304235 -65.53515625 61.83984375 C-65.87546875 60.94265625 -66.21578125 60.04546875 -66.56640625 59.12109375 C-71.18004134 44.25493625 -70.20778325 26.67074038 -63.02734375 12.9609375 C-57.20445828 3.00786582 -49.33314167 -3.99470823 -38.53515625 -8.16015625 C-24.47404375 -11.70382919 -11.72455446 -7.95654844 0 0 Z M-37.53515625 -0.16015625 C-38.19128906 0.08605469 -38.84742188 0.33226563 -39.5234375 0.5859375 C-49.84173574 5.09393188 -55.50172603 13.63685744 -59.53515625 23.83984375 C-64.22925166 38.48632414 -61.72295908 55.1557507 -54.84765625 68.71484375 C-48.51275169 79.27301802 -40.59829524 86.42851572 -29.28515625 91.21484375 C-17.55408736 93.1700219 -7.47010091 92.24043346 2.51953125 85.44140625 C10.49273772 78.46042103 15.56074537 66.24114486 16.68188477 55.82299805 C17.26566972 45.87467906 16.23551877 37.15416019 12.46484375 27.83984375 C11.97371094 26.55207031 11.97371094 26.55207031 11.47265625 25.23828125 C8.14652771 17.59061344 2.4980109 11.49411634 -3.53515625 5.83984375 C-4.19515625 5.83984375 -4.85515625 5.83984375 -5.53515625 5.83984375 C-5.53515625 5.17984375 -5.53515625 4.51984375 -5.53515625 3.83984375 C-16.11258896 -0.71736494 -26.28810674 -4.40388833 -37.53515625 -0.16015625 Z " fill="#7E5A3E" transform="translate(222.53515625,124.16015625)"/>
<path d="M0 0 C8.01561493 6.81088709 15.17284756 15.57484828 16.55200195 26.3371582 C16.68716154 28.85152767 16.71790368 31.33770916 16.6875 33.85546875 C16.67920166 34.73952393 16.67090332 35.6235791 16.66235352 36.53442383 C16.35375421 48.43361757 11.77221255 56.21213498 3.59375 64.69921875 C-6.04202091 73.60776167 -16.84893771 75.60262375 -29.640625 75.3125 C-40.49617419 74.70244023 -48.59536902 68.77390607 -55.75 60.98046875 C-63.55471188 51.5273479 -66.76194263 41.09979197 -66.1953125 28.91796875 C-64.9658221 18.04668521 -59.3868882 8.66977661 -51.03125 1.71875 C-36.09878331 -9.46052949 -15.48694433 -11.37322474 0 0 Z M-51.75 12.98046875 C-57.54546592 21.00705301 -59.97113546 30.16520178 -58.4375 39.98046875 C-56.5311634 48.69515035 -52.44248337 56.86502026 -44.90234375 61.87109375 C-35.50951111 67.48625008 -28.77901296 68.9820597 -17.75 67.98046875 C-8.34915759 65.50246892 -1.39999979 60.61695496 4.5625 53.04296875 C9.52969913 44.02842219 10.73017706 35.16926033 9.25 24.98046875 C6.82221125 17.21498843 2.51715771 11.1172487 -3.75 5.98046875 C-4.37648438 5.4596875 -5.00296875 4.93890625 -5.6484375 4.40234375 C-20.91117767 -5.92411986 -40.49192919 0.34054087 -51.75 12.98046875 Z " fill="#7E5A3E" transform="translate(406.75,196.01953125)"/>
<path d="M0 0 C0.70253906 0.39316406 1.40507812 0.78632813 2.12890625 1.19140625 C2.82113281 1.55363281 3.51335937 1.91585937 4.2265625 2.2890625 C14.56094979 8.1631362 21.01648134 16.89163062 24.77734375 28.12890625 C27.02657664 41.32440586 24.17691645 53.48967729 16.59765625 64.39453125 C10.19947066 72.30172288 1.17216467 77.52907382 -8.87109375 79.19140625 C-21.92219277 80.20727558 -32.63356338 78.67656656 -42.87109375 70.19140625 C-48.09432971 65.18155293 -52.22714785 59.9583371 -54.87109375 53.19140625 C-55.226875 52.31355469 -55.58265625 51.43570313 -55.94921875 50.53125 C-58.50248039 41.28108602 -58.42820267 28.9126291 -54.12890625 20.25390625 C-43.053841 2.09355081 -20.82699671 -10.1139561 0 0 Z M-40.87109375 14.19140625 C-48.02525787 23.18370126 -50.83951747 31.77015508 -49.87109375 43.19140625 C-48.23714266 53.2834571 -43.73840376 60.52442698 -35.76171875 66.87109375 C-27.12392221 72.90327398 -18.37343424 73.45572825 -8.06640625 71.71875 C1.55992971 69.21470311 8.33393096 64.09248727 13.6875 55.7578125 C18.40311663 47.36171459 19.61872739 38.76258165 17.47265625 29.296875 C14.26888258 19.42317598 8.80923633 12.3340487 -0.328125 7.34375 C-14.30086573 1.01201649 -29.65890174 3.82435434 -40.87109375 14.19140625 Z " fill="#7E5A3E" transform="translate(141.87109375,195.80859375)"/>
<path d="M0 0 C7.00787162 10.51180743 6.90773922 25.41180169 4.51074219 37.45898438 C0.63868398 51.65035561 -8.12803039 63.98975392 -20.74609375 71.671875 C-29.48770174 75.89441563 -39.65504816 76.95229287 -48.99609375 74.078125 C-55.55381908 71.00387934 -61.98146897 66.7481583 -65 60 C-62.64749671 60.37943601 -60.43367279 60.82041744 -58.2265625 61.734375 C-49.82103844 65.14811274 -39.58132489 65.99094002 -31.03125 62.60546875 C-25.08381192 59.87672515 -20.59538011 56.6580088 -16 52 C-15.01 51.67 -14.02 51.34 -13 51 C-11.78130071 48.49552484 -11.78130071 48.49552484 -11 46 C-10.34 46 -9.68 46 -9 46 C-8.7525 45.34 -8.505 44.68 -8.25 44 C-7.27481814 41.65956354 -6.23220934 39.49082249 -5.0625 37.25 C-0.71204462 28.50313748 0.41738652 21.21651882 0.1875 11.4375 C0.17396484 10.33341797 0.16042969 9.22933594 0.14648438 8.09179688 C0.11144815 5.39400728 0.06232591 2.69727364 0 0 Z " fill="#E5C1A6" transform="translate(336,141)"/>
<path d="M0 0 C2.34634647 2.34634647 2.95441302 4.19890199 4.0625 7.3125 C4.40410156 8.25738281 4.74570313 9.20226562 5.09765625 10.17578125 C9.4115153 23.67759985 7.69059724 38.1330928 1.6796875 50.77734375 C-2.90296239 59.10374315 -9.12667407 65.13164241 -18.16796875 68.33984375 C-27.75759565 70.57521885 -37.29385807 69.59342458 -46 65 C-50.37079667 62.12103213 -54.08258923 59.37611615 -57 55 C-53.46304928 54.81861791 -50.45522072 55.08756375 -47.0625 56 C-37.09136638 58.32828501 -26.86716134 58.40474596 -18 53 C-17.23042969 52.5875 -16.46085937 52.175 -15.66796875 51.75 C-6.36396342 46.31880617 -2.55110598 37.58184342 0.31640625 27.50390625 C2.08418848 18.4427596 1.27539893 9.08721735 0 0 Z " fill="#E5C1A7" transform="translate(232,147)"/>
<path d="M0 0 C1.12664062 -0.01417969 2.25328125 -0.02835937 3.4140625 -0.04296875 C6.375 0.1875 6.375 0.1875 9.375 2.1875 C8.715 2.1875 8.055 2.1875 7.375 2.1875 C6.36388907 5.23663228 6.36388907 5.23663228 7.375 8.1875 C6.7459375 8.16429688 6.116875 8.14109375 5.46875 8.1171875 C-4.99341045 7.89659978 -14.29538313 10.00212081 -22.25 17.1875 C-31.41514392 26.98183 -34.1382386 39.60123847 -33.953125 52.60546875 C-33.15014813 61.37129962 -30.47141144 69.89187746 -27.625 78.1875 C-28.945 77.8575 -30.265 77.5275 -31.625 77.1875 C-31.625 75.8675 -31.625 74.5475 -31.625 73.1875 C-32.285 73.1875 -32.945 73.1875 -33.625 73.1875 C-33.295 75.1675 -32.965 77.1475 -32.625 79.1875 C-33.615 79.6825 -33.615 79.6825 -34.625 80.1875 C-35.42280561 78.18994091 -36.21292425 76.18931115 -37 74.1875 C-37.44085938 73.07375 -37.88171875 71.96 -38.3359375 70.8125 C-43.01111418 57.6653365 -44.3523903 40.92473343 -38.9453125 27.78515625 C-32.66431644 15.42757525 -24.81696354 6.27645282 -11.625 1.1875 C-7.73101262 0.17889343 -4.01528029 0.02307632 0 0 Z " fill="#815F45" transform="translate(195.625,114.8125)"/>
<path d="M0 0 C4.83715643 6.22935077 6.55073572 11.54488067 6.4375 19.3125 C6.42775146 20.06088135 6.41800293 20.8092627 6.40795898 21.58032227 C6.08347601 31.74268919 2.57757584 38.41848966 -4.41796875 45.796875 C-13.2905224 53.36740489 -23.72363637 54.86927 -35 54 C-38.61987145 53.10234994 -41.73218437 51.78351158 -45 50 C-45.96873047 49.4740625 -45.96873047 49.4740625 -46.95703125 48.9375 C-52.08386338 45.72066415 -54.94889951 41.12987225 -58 36 C-56.02 36 -54.04 36 -52 36 C-51.67 36.99 -51.34 37.98 -51 39 C-49.01149799 40.20692667 -49.01149799 40.20692667 -46.625 41.125 C-45.83351563 41.45757812 -45.04203125 41.79015625 -44.2265625 42.1328125 C-36.67131884 45.07538108 -28.30730981 45.2468367 -20.6875 42.3125 C-19.10872744 41.57556888 -17.54488089 40.80556397 -16 40 C-15.27941406 39.649375 -14.55882812 39.29875 -13.81640625 38.9375 C-8.1350253 35.84442304 -5.12888048 31.57020442 -2 26 C-1.64873047 25.40227783 -1.29746094 24.80455566 -0.93554688 24.1887207 C0.18547966 21.56606859 0.22840599 19.64291479 0.1953125 16.796875 C0.18564453 15.32734375 0.18564453 15.32734375 0.17578125 13.828125 C0.15902344 12.81234375 0.14226562 11.7965625 0.125 10.75 C0.11597656 9.71875 0.10695313 8.6875 0.09765625 7.625 C0.07412011 5.08309713 0.04124023 2.5416672 0 0 Z " fill="#E4C0A6" transform="translate(410,210)"/>
<path d="M0 0 C6.16534344 6.59053953 7.61960926 14.13491614 7.33984375 22.953125 C6.28210844 32.43626917 2.00227032 40.52940448 -5 47 C-14.86340184 53.29415526 -24.37202009 55.2729578 -36 54 C-43.50793448 51.53838214 -50.2217975 47.3864001 -55 41 C-55.495 39.515 -55.495 39.515 -56 38 C-52.83090255 38.70587785 -49.93925594 39.76851038 -46.9375 41 C-37.01897391 45.0569009 -27.85958122 45.55009656 -17.6875 41.625 C-9.82679304 37.91128018 -3.50681306 32.06907472 0 24 C1.89016975 16.439321 1.68499164 7.58246237 0 0 Z " fill="#E5C0A5" transform="translate(153,214)"/>
<path d="M0 0 C1 1 1 1 1.0625 3.5625 C1.041875 4.366875 1.02125 5.17125 1 6 C0.23816406 6.35191406 -0.52367187 6.70382812 -1.30859375 7.06640625 C-8.23945465 10.3804134 -14.22080391 13.93777185 -20 19 C-20.66515625 19.55945313 -21.3303125 20.11890625 -22.015625 20.6953125 C-30.98979628 28.85686197 -37.16586186 40.60483421 -41 52 C-42.65 51.67 -44.3 51.34 -46 51 C-47.87037164 44.51839765 -44.90208929 39.7694646 -42 34 C-34.6387468 20.854905 -17.0583551 -1.42152959 0 0 Z " fill="#7C5A42" transform="translate(204,266)"/>
<path d="M0 0 C0 0.33 0 0.66 0 1 C-2.64 1.33 -5.28 1.66 -8 2 C-7.505 3.485 -7.505 3.485 -7 5 C-5.12612784 5.80212628 -5.12612784 5.80212628 -2.9375 6.1875 C-2.20402344 6.34605469 -1.47054687 6.50460938 -0.71484375 6.66796875 C-0.14894531 6.77753906 0.41695313 6.88710937 1 7 C-2.0306214 7.87985783 -4.73034351 8.05809242 -7.875 8.125 C-17.79941302 8.98857008 -27.60721305 14.33894192 -34.2578125 21.703125 C-40.95462735 30.53210959 -45.5861327 39.97183506 -47 51 C-47.33 51 -47.66 51 -48 51 C-48.66 48.36 -49.32 45.72 -50 43 C-51.485 43.495 -51.485 43.495 -53 44 C-53.4682784 38.51688568 -52.00887654 34.99901568 -49.5625 30.25 C-49.20269043 29.54625244 -48.84288086 28.84250488 -48.47216797 28.11743164 C-41.57856858 15.15514611 -30.83892069 6.28152309 -17.25 0.8671875 C-11.53568363 -0.65754595 -5.86008086 -0.39009414 0 0 Z " fill="#846348" transform="translate(312,115)"/>
<path d="M0 0 C1.4540625 0.7425 1.4540625 0.7425 2.9375 1.5 C3.0625 6.25 3.0625 6.25 1.9375 8.5 C1.24785156 8.355625 0.55820313 8.21125 -0.15234375 8.0625 C-12.10070178 5.70233051 -21.95399484 5.65803432 -32.75 12 C-39.85296229 17.05015581 -44.36890343 25.03201715 -46.0625 33.5 C-46.3925 33.5 -46.7225 33.5 -47.0625 33.5 C-47.3925 31.19 -47.7225 28.88 -48.0625 26.5 C-49.7125 27.16 -51.3625 27.82 -53.0625 28.5 C-50.35919376 18.25589213 -44.76254723 10.60191026 -36.0625 4.5 C-25.23619433 -1.23942506 -11.96570704 -4.57893482 0 0 Z " fill="#7F5C41" transform="translate(139.0625,194.5)"/>
<path d="M0 0 C1.09731445 0.00676758 1.09731445 0.00676758 2.21679688 0.01367188 C3.99873419 0.02531852 5.78062863 0.04324809 7.5625 0.0625 C6.5725 0.3925 5.5825 0.7225 4.5625 1.0625 C3.82926204 3.07758358 3.82926204 3.07758358 3.5625 5.0625 C6.0375 5.5575 6.0375 5.5575 8.5625 6.0625 C8.5625 6.7225 8.5625 7.3825 8.5625 8.0625 C9.8825 8.3925 11.2025 8.7225 12.5625 9.0625 C10.5625 10.0625 10.5625 10.0625 7.6875 9.125 C-0.46384556 6.67283173 -8.9429639 7.40328695 -16.76171875 10.60546875 C-25.41876381 15.31945095 -31.33506277 21.93621565 -34.109375 31.33984375 C-34.60232434 33.23503413 -35.02718953 35.14771778 -35.4375 37.0625 C-36.0975 36.7325 -36.7575 36.4025 -37.4375 36.0625 C-37.41429687 35.21945313 -37.39109375 34.37640625 -37.3671875 33.5078125 C-37.34914063 32.41210938 -37.33109375 31.31640625 -37.3125 30.1875 C-37.28929687 29.09695312 -37.26609375 28.00640625 -37.2421875 26.8828125 C-37.13689466 23.9253949 -37.13689466 23.9253949 -39.4375 22.0625 C-33.5420433 12.21440755 -26.39974623 5.06380255 -15.4375 1.0625 C-10.25726251 0.06962115 -5.24767646 -0.06241518 0 0 Z " fill="#815F46" transform="translate(384.4375,188.9375)"/>
<path d="M0 0 C0.53625 0.268125 1.0725 0.53625 1.625 0.8125 C-0.025 2.4625 -1.675 4.1125 -3.375 5.8125 C-4.035 5.4825 -4.695 5.1525 -5.375 4.8125 C-5.705 7.1225 -6.035 9.4325 -6.375 11.8125 C-7.695 12.1425 -9.015 12.4725 -10.375 12.8125 C-10.106875 13.84375 -9.83875 14.875 -9.5625 15.9375 C-9.36769092 19.96355431 -9.36597374 20.38780229 -11.75 23.25 C-14.375 25.8125 -14.375 25.8125 -15.375 25.8125 C-15.375 24.1625 -15.375 22.5125 -15.375 20.8125 C-16.035 20.8125 -16.695 20.8125 -17.375 20.8125 C-16.55449795 12.64315351 -11.01591166 7.01872474 -5.125 1.625 C-2.375 -0.1875 -2.375 -0.1875 0 0 Z " fill="#7E5C3F" transform="translate(176.375,121.1875)"/>
<path d="M0 0 C0.99 0.33 1.98 0.66 3 1 C3 1.66 3 2.32 3 3 C4.65 3 6.3 3 8 3 C7.59007813 3.64066406 7.18015625 4.28132812 6.7578125 4.94140625 C3.66184574 9.91124762 1.24627496 14.26713518 0 20 C-0.33 20 -0.66 20 -1 20 C-1.33 17.69 -1.66 15.38 -2 13 C-3.65 13.66 -5.3 14.32 -7 15 C-5.34292168 9.35086937 -3.52237988 4.73699363 0 0 Z " fill="#836348" transform="translate(93,208)"/>
<path d="M0 0 C3.10398978 -0.08710289 6.20766548 -0.14042309 9.3125 -0.1875 C10.19357422 -0.21263672 11.07464844 -0.23777344 11.98242188 -0.26367188 C13.25375977 -0.27817383 13.25375977 -0.27817383 14.55078125 -0.29296875 C15.72120972 -0.31653442 15.72120972 -0.31653442 16.9152832 -0.34057617 C19.55836367 0.0912188 20.38428179 0.90027269 22 3 C22.33 3.99 22.66 4.98 23 6 C17.49405297 8.75297351 10.66194932 6.43795538 5 5 C5 3.68 5 2.36 5 1 C3.35 1 1.7 1 0 1 C0 0.67 0 0.34 0 0 Z " fill="#7A573A" transform="translate(299,116)"/>
<path d="M0 0 C0.66 0.99 1.32 1.98 2 3 C1.34 3 0.68 3 0 3 C0 3.99 0 4.98 0 6 C0.99 6.33 1.98 6.66 3 7 C4.18594057 11.23325806 3.71869389 14.10395424 2.5625 18.3125 C2.27503906 19.38113281 1.98757813 20.44976562 1.69140625 21.55078125 C1.46324219 22.35902344 1.23507812 23.16726562 1 24 C0.67 24 0.34 24 0 24 C-0.66 21.36 -1.32 18.72 -2 16 C-2.99 16.33 -3.98 16.66 -5 17 C-5.27771418 12.32051602 -4.54837397 9.32416664 -2.5 5.125 C-2.0359375 4.15820312 -1.571875 3.19140625 -1.09375 2.1953125 C-0.7328125 1.47085938 -0.371875 0.74640625 0 0 Z " fill="#87664C" transform="translate(264,142)"/>
<path d="M0 0 C0.66 0.66 1.32 1.32 2 2 C3.65 1.34 5.3 0.68 7 0 C7 0.66 7 1.32 7 2 C7.66 2.33 8.32 2.66 9 3 C4 8 -1 13 -6 18 C-6.1875 15.625 -6.1875 15.625 -6 13 C-5.01 12.34 -4.02 11.68 -3 11 C-2.7497843 7.91634129 -2.7497843 7.91634129 -3 5 C-2.34 4.67 -1.68 4.34 -1 4 C-1 3.01 -1 2.02 -1 1 C-0.67 0.67 -0.34 0.34 0 0 Z " fill="#896A54" transform="translate(161,266)"/>
<path d="M0 0 C0.33 0 0.66 0 1 0 C2.95250353 10.63091159 3.28230709 20.9314582 3.20581055 31.70654297 C3.18738543 34.39169714 3.18530281 37.07650743 3.18554688 39.76171875 C3.18063547 41.49479461 3.17480881 43.22786818 3.16796875 44.9609375 C3.16685593 45.75067963 3.1657431 46.54042175 3.16459656 47.35409546 C3.1226842 52.31430878 2.699938 57.08821561 2 62 C-0.30441554 58.54337669 -0.25860135 57.05142119 0 53 C0.33 52.34 0.66 51.68 1 51 C1.09899842 48.3828928 1.13982801 45.79303705 1.1328125 43.17578125 C1.13376923 42.39615524 1.13472595 41.61652924 1.13571167 40.8132782 C1.13639298 39.15977905 1.13454213 37.50627723 1.13037109 35.8527832 C1.12505803 33.339944 1.13029901 30.82728648 1.13671875 28.31445312 C1.13605726 26.70572878 1.13477462 25.09700454 1.1328125 23.48828125 C1.13483673 22.7432283 1.13686096 21.99817535 1.13894653 21.23054504 C1.11908029 16.73210964 0.71028493 12.45399861 0 8 C-0.10751986 5.3206052 -0.0470821 2.68367951 0 0 Z " fill="#EFEED3" transform="translate(447,220)"/>
<path d="M0 0 C1.66611905 -0.042721 3.33382885 -0.04063832 5 0 C6 1 6 1 6.0625 3.5625 C6.041875 4.366875 6.02125 5.17125 6 6 C1.44508386 8.20399168 -3.02906176 8.58846263 -8 9 C-7.67 8.01 -7.34 7.02 -7 6 C-5 5 -3 4 -1 3 C-0.67 2.01 -0.34 1.02 0 0 Z " fill="#7C553B" transform="translate(199,266)"/>
<path d="M0 0 C0.33 0.99 0.66 1.98 1 3 C2.65 3 4.3 3 6 3 C6 6.92165239 4.74728785 7.73024249 2.125 10.5625 C1.40570313 11.34753906 0.68640625 12.13257813 -0.0546875 12.94140625 C-1.35054115 14.31272126 -2.66588202 15.66588202 -4 17 C-4 15.68 -4 14.36 -4 13 C-3.34 13 -2.68 13 -2 13 C-1.83322718 9.58343976 -1.83322718 9.58343976 -2 6 C-2.66 5.34 -3.32 4.68 -4 4 C-2.68 2.68 -1.36 1.36 0 0 Z " fill="#8A6C57" transform="translate(276,127)"/>
<path d="M0 0 C0.33 0.66 0.66 1.32 1 2 C-2.86733041 6.4914529 -6.80806892 10.80806892 -11 15 C-13.69376512 17.97625734 -16.35148607 20.98345436 -19 24 C-19.66 23.67 -20.32 23.34 -21 23 C-14.34506514 14.92804479 -7.55154971 7.25669527 0 0 Z " fill="#EDEACF" transform="translate(121,109)"/>
<path d="M0 0 C2.94586829 4.41880243 3.0985616 6.67767339 3 12 C3.99 12 4.98 12 6 12 C5.938125 12.99 5.87625 13.98 5.8125 15 C5.78940146 18.80355888 6.89131007 21.65614261 8.33203125 25.1328125 C9.1721786 27.48129457 9.23166174 29.5289414 9 32 C6.05752076 27.58628114 4.90753492 22.73676648 3.375 17.6875 C3.05015625 16.65431641 2.7253125 15.62113281 2.390625 14.55664062 C1.93042969 13.0494043 1.93042969 13.0494043 1.4609375 11.51171875 C1.18040527 10.59865967 0.89987305 9.68560059 0.61083984 8.74487305 C-0.05456755 5.75479498 -0.10499851 3.05366 0 0 Z " fill="#ECEBCC" transform="translate(62,292)"/>
<path d="M0 0 C0.99 0.33 1.98 0.66 3 1 C3 1.66 3 2.32 3 3 C4.65 3 6.3 3 8 3 C5.03 7.95 5.03 7.95 2 13 C0 10 0 10 0.375 7.8125 C0.58125 7.214375 0.7875 6.61625 1 6 C-0.65 6.66 -2.3 7.32 -4 8 C-2.87548273 5.0280615 -1.77706209 2.66559313 0 0 Z " fill="#8A6D54" transform="translate(93,208)"/>
<path d="M0 0 C0.33 0 0.66 0 1 0 C1.268125 1.19625 1.53625 2.3925 1.8125 3.625 C2.7391113 7.38477534 4.20047341 10.56454015 6 14 C6 14.66 6 15.32 6 16 C5.01 16 4.02 16 3 16 C2.67 16.99 2.34 17.98 2 19 C2 18.01 2 17.02 2 16 C1.34 16 0.68 16 0 16 C0 15.01 0 14.02 0 13 C-0.66 12.67 -1.32 12.34 -2 12 C-1.67 11.67 -1.34 11.34 -1 11 C-0.76636119 9.15108054 -0.58696365 7.29511969 -0.4375 5.4375 C-0.35371094 4.42558594 -0.26992188 3.41367188 -0.18359375 2.37109375 C-0.12300781 1.58863281 -0.06242187 0.80617187 0 0 Z " fill="#815E47" transform="translate(348,234)"/>
<path d="M0 0 C5.75 -0.125 5.75 -0.125 8 1 C7.67 2.98 7.34 4.96 7 7 C3.7 6.34 0.4 5.68 -3 5 C-2.34 4.67 -1.68 4.34 -1 4 C-0.34786708 1.97536745 -0.34786708 1.97536745 0 0 Z " fill="#795538" transform="translate(203,117)"/>
<path d="M0 0 C0.99 0.33 1.98 0.66 3 1 C3 3.31 3 5.62 3 8 C1.68 7.67 0.36 7.34 -1 7 C-1.66 8.98 -2.32 10.96 -3 13 C-3.66 12.67 -4.32 12.34 -5 12 C-4.52389341 7.00088076 -2.96837781 4.02167317 0 0 Z " fill="#7B5839" transform="translate(147,283)"/>
<path d="M0 0 C0.78375 0.165 1.5675 0.33 2.375 0.5 C5.09522679 1.23945377 5.09522679 1.23945377 8 0 C8.66 0.66 9.32 1.32 10 2 C5.71606994 5.91673605 5.71606994 5.91673605 2.3125 6.3125 C0 6 0 6 -2 5 C-1.125 1.125 -1.125 1.125 0 0 Z " fill="#816046" transform="translate(96,205)"/>
<path d="M0 0 C1.32 0 2.64 0 4 0 C4.74609375 1.703125 4.74609375 1.703125 5 4 C3.34765625 6.359375 3.34765625 6.359375 1.0625 8.75 C-0.06478516 9.94882813 -0.06478516 9.94882813 -1.21484375 11.171875 C-1.80394531 11.77515625 -2.39304688 12.3784375 -3 13 C-5 10 -5 10 -5 8 C-4.01 7.67 -3.02 7.34 -2 7 C-0.77030122 3.48809191 -0.77030122 3.48809191 0 0 Z M-7 10 C-5 11 -5 11 -5 11 Z " fill="#85644C" transform="translate(171,126)"/>
<path d="M0 0 C-0.99 0.33 -1.98 0.66 -3 1 C-3.33 1.99 -3.66 2.98 -4 4 C-2.35 4 -0.7 4 1 4 C1 4.66 1 5.32 1 6 C-3.29 6 -7.58 6 -12 6 C-12 4.68 -12 3.36 -12 2 C-7.8794254 0.00214565 -4.54805635 -0.17835515 0 0 Z " fill="#7A5439" transform="translate(316,370)"/>
<path d="M0 0 C2.34054554 2.34054554 2.99321065 4.21475064 4.125 7.3125 C4.47820312 8.25738281 4.83140625 9.20226562 5.1953125 10.17578125 C6.00110151 13.00386599 6.39129656 15.08534229 6 18 C5.01 18.66 4.02 19.32 3 20 C2.49550598 17.41747107 1.99625699 14.83411297 1.5 12.25 C1.35691406 11.52039063 1.21382812 10.79078125 1.06640625 10.0390625 C0.41111121 6.60656468 0 3.50830509 0 0 Z " fill="#DDB9A2" transform="translate(232,147)"/>
<path d="M0 0 C-9.19392474 6.93881112 -20.10325619 5.48874437 -31 5 C-31 4.34 -31 3.68 -31 3 C-29.81664063 3.04640625 -28.63328125 3.0928125 -27.4140625 3.140625 C-15.76474532 3.51284981 -15.76474532 3.51284981 -4.84765625 -0.22265625 C-3 -1 -3 -1 0 0 Z " fill="#E3C8B2" transform="translate(141,255)"/>
<path d="M0 0 C3.95829688 -0.22822613 6.67851541 0.44949991 10.3125 2 C11.19550781 2.37125 12.07851562 2.7425 12.98828125 3.125 C13.65214844 3.41375 14.31601563 3.7025 15 4 C15 4.66 15 5.32 15 6 C17.64 6.33 20.28 6.66 23 7 C22.67 7.66 22.34 8.32 22 9 C14.39162534 6.92957946 7.2271408 4.14169523 0 1 C0 0.67 0 0.34 0 0 Z " fill="#EBE9CB" transform="translate(170,431)"/>
<path d="M0 0 C4.75 0.75 4.75 0.75 7 3 C6.01 3.33 5.02 3.66 4 4 C4 5.65 4 7.3 4 9 C1.03 8.01 -1.94 7.02 -5 6 C-5 5.67 -5 5.34 -5 5 C-3.02 4.34 -1.04 3.68 1 3 C0.67 2.01 0.34 1.02 0 0 Z " fill="#866750" transform="translate(320,118)"/>
<path d="M0 0 C3.01468588 2.00979059 3.83789182 2.70736015 5 6 C4.625 8.25 4.625 8.25 4 10 C2.948125 9.566875 2.948125 9.566875 1.875 9.125 C-1.05452503 7.97866412 -4.00921653 6.97374346 -7 6 C-6.401875 5.855625 -5.80375 5.71125 -5.1875 5.5625 C-3.43849596 5.1127561 -1.71322977 4.57107659 0 4 C0 2.68 0 1.36 0 0 Z " fill="#896B54" transform="translate(211,118)"/>
<path d="M0 0 C1.04449911 3.13349732 0.93423645 3.98968256 0 7 C-0.99 6.67 -1.98 6.34 -3 6 C-5.6569191 6.87914688 -5.6569191 6.87914688 -8 8 C-7.6641593 4.89347355 -7.40950721 3.39585697 -5.125 1.1875 C-3 0 -3 0 0 0 Z " fill="#7D593C" transform="translate(170,261)"/>
<path d="M0 0 C0.66 0.33 1.32 0.66 2 1 C1.67 2.32 1.34 3.64 1 5 C0.34 5 -0.32 5 -1 5 C-1 5.66 -1 6.32 -1 7 C-1.97850195 8.02104551 -2.97980427 9.0206121 -4 10 C-4.33 10.66 -4.66 11.32 -5 12 C-6.65 12 -8.3 12 -10 12 C-9.61328125 11.55269531 -9.2265625 11.10539063 -8.828125 10.64453125 C-5.81609925 7.1478974 -2.85678969 3.62592537 0 0 Z " fill="#E6D7AE" transform="translate(336,202)"/>
<path d="M0 0 C3 0.3125 3 0.3125 6 1 C6.33 1.66 6.66 2.32 7 3 C6.01 3.495 6.01 3.495 5 4 C5 4.66 5 5.32 5 6 C2.69 5.67 0.38 5.34 -2 5 C-1.125 1.125 -1.125 1.125 0 0 Z " fill="#7B563A" transform="translate(279,125)"/>
<path d="M0 0 C0.66 0 1.32 0 2 0 C1.88490339 1.41750563 1.75746342 2.83401169 1.625 4.25 C1.55539062 5.03890625 1.48578125 5.8278125 1.4140625 6.640625 C0.98492887 9.085877 0.21399362 10.84836903 -1 13 C-2.57960269 11.42039731 -2.16986544 9.80463184 -2.1875 7.625 C-2.20167969 6.83351562 -2.21585937 6.04203125 -2.23046875 5.2265625 C-2 3 -2 3 0 0 Z " fill="#886956" transform="translate(349,213)"/>
<path d="M0 0 C2.26954631 3.40431947 2.36549949 5.16524202 2.625 9.1875 C2.69976562 10.27417969 2.77453125 11.36085938 2.8515625 12.48046875 C2.92503906 13.72763672 2.92503906 13.72763672 3 15 C2.01 15.33 1.02 15.66 0 16 C0 10.72 0 5.44 0 0 Z " fill="#DBB99E" transform="translate(361,301)"/>
<path d="M0 0 C2.72776251 2.3867922 3.91176437 4.24794514 4.3359375 7.86328125 C4.44651063 16.91922028 4.44651063 16.91922028 2 21 C0.93030016 17.79090047 0.93228158 15.55225908 1 12.1875 C1.04063594 7.99691831 0.91378432 4.11202943 0 0 Z " fill="#E1C7B2" transform="translate(153,214)"/>
<path d="M0 0 C0.103125 0.78375 0.20625 1.5675 0.3125 2.375 C0.77595022 5.33045181 0.77595022 5.33045181 4 7 C1.8125 7.75 1.8125 7.75 -1 8 C-3.8125 6.1875 -3.8125 6.1875 -6 4 C-6 3.34 -6 2.68 -6 2 C-2.25 0 -2.25 0 0 0 Z " fill="#86664B" transform="translate(368,191)"/>
<path d="M0 0 C2 0.75 2 0.75 4 3.75 C2.68 4.74 1.36 5.73 0 6.75 C0 6.09 0 5.43 0 4.75 C-1.32 4.42 -2.64 4.09 -4 3.75 C-4 2.76 -4 1.77 -4 0.75 C-2 -0.25 -2 -0.25 0 0 Z " fill="#7A573A" transform="translate(335,257.25)"/>
<path d="M0 0 C2.88437779 1.29299694 4.87219421 2.65941363 7 5 C5.02 6.32 3.04 7.64 1 9 C1 6.66666667 1 4.33333333 1 2 C0.34 1.67 -0.32 1.34 -1 1 C-0.67 0.67 -0.34 0.34 0 0 Z " fill="#83644E" transform="translate(169,259)"/>
<path d="M0 0 C1 3 1 3 0 7 C-3.63 6.34 -7.26 5.68 -11 5 C-8 3 -8 3 -4.9375 2.5 C-1.88644627 2.27206546 -1.88644627 2.27206546 0 0 Z " fill="#8A6C56" transform="translate(141,196)"/>
<path d="M0 0 C-9 6 -9 6 -12.1875 5.625 C-13.115625 5.41875 -14.04375 5.2125 -15 5 C-12.62383533 2.62383533 -10.64650479 1.95931819 -7.5 0.8125 C-6.5203125 0.44769531 -5.540625 0.08289063 -4.53125 -0.29296875 C-2 -1 -2 -1 0 0 Z " fill="#EDEACE" transform="translate(192,69)"/>
<path d="M0 0 C-3.63 2.31 -7.26 4.62 -11 7 C-11.33 6.01 -11.66 5.02 -12 4 C-3.52941176 -1.17647059 -3.52941176 -1.17647059 0 0 Z " fill="#EBE9CA" transform="translate(364,417)"/>
<path d="M0 0 C-0.99 1.32 -1.98 2.64 -3 4 C-3.99 3.67 -4.98 3.34 -6 3 C-6.99 3.33 -7.98 3.66 -9 4 C-9.99 3.34 -10.98 2.68 -12 2 C-10.75579353 1.4654744 -9.50429064 0.94791389 -8.25 0.4375 C-7.55390625 0.14746094 -6.8578125 -0.14257812 -6.140625 -0.44140625 C-3.69987216 -1.07831803 -2.3596345 -0.80248831 0 0 Z " fill="#E4D7AD" transform="translate(322,219)"/>
<path d="M0 0 C1.98362069 2.91708924 1.9876191 4.12380904 1.625 7.75 C1.41875 8.8225 1.2125 9.895 1 11 C-0.32 10.01 -1.64 9.02 -3 8 C-2.67 6.02 -2.34 4.04 -2 2 C-1.34 2 -0.68 2 0 2 C0 1.34 0 0.68 0 0 Z " fill="#7A5536" transform="translate(267,140)"/>
<path d="M0 0 C2.625 0.9375 2.625 0.9375 5 2 C4.01 2.495 4.01 2.495 3 3 C3 3.66 3 4.32 3 5 C1.35 5.33 -0.3 5.66 -2 6 C-2 4.35 -2 2.7 -2 1 C-1.34 0.67 -0.68 0.34 0 0 Z " fill="#7D5A3C" transform="translate(326,121)"/>
<path d="M0 0 C7.16562789 -0.28100502 13.94546999 0.79556805 21 2 C21 2.33 21 2.66 21 3 C15.60903802 4.10019632 12.20017133 3.67148364 7 2 C4.67212073 1.63049535 2.33954855 1.28647533 0 1 C0 0.67 0 0.34 0 0 Z " fill="#EFEDD2" transform="translate(272,59)"/>
<path d="M0 0 C0.33 0.99 0.66 1.98 1 3 C-4.75 8 -4.75 8 -7 8 C-6.75 5.625 -6.75 5.625 -6 3 C-4.0625 1.75 -4.0625 1.75 -2 1 C-1.34 0.67 -0.68 0.34 0 0 Z " fill="#EEDFD2" transform="translate(173,303)"/>
<path d="M0 0 C0.99 0.66 1.98 1.32 3 2 C1.56988027 2.86646667 0.13059381 3.71781829 -1.3125 4.5625 C-2.51326172 5.27599609 -2.51326172 5.27599609 -3.73828125 6.00390625 C-6 7 -6 7 -9 6 C-8.34 4.68 -7.68 3.36 -7 2 C-4.69 2 -2.38 2 0 2 C0 1.34 0 0.68 0 0 Z " fill="#947867" transform="translate(292,123)"/>
<path d="M0 0 C0.66 0.33 1.32 0.66 2 1 C-5.0547046 7.03938731 -5.0547046 7.03938731 -9 6.875 C-9.66 6.58625 -10.32 6.2975 -11 6 C-8.66460191 4.44306794 -6.42031244 3.09799354 -3.9375 1.8125 C-2.89916016 1.26529297 -2.89916016 1.26529297 -1.83984375 0.70703125 C-1.23269531 0.47371094 -0.62554687 0.24039063 0 0 Z " fill="#E5C7B2" transform="translate(312,200)"/>
<path d="M0 0 C1.98 0.66 3.96 1.32 6 2 C6.33 3.65 6.66 5.3 7 7 C6.01 7 5.02 7 4 7 C2.02 3.535 2.02 3.535 0 0 Z " fill="#F1E1D2" transform="translate(168,192)"/>
<path d="M0 0 C1.52519276 0.08937803 3.04681929 0.24537146 4.5625 0.4375 C5.80193359 0.59025391 5.80193359 0.59025391 7.06640625 0.74609375 C7.70449219 0.82988281 8.34257812 0.91367187 9 1 C7.625 2.52734375 7.625 2.52734375 6 4 C4.65737935 3.70630173 3.32303717 3.3721042 2 3 C1.01 3.66 0.02 4.32 -1 5 C-1 1 -1 1 0 0 Z " fill="#82604A" transform="translate(171,287)"/>
<path d="M0 0 C4.455 0.99 4.455 0.99 9 2 C8.67 3.32 8.34 4.64 8 6 C6.68 5.67 5.36 5.34 4 5 C4 4.01 4 3.02 4 2 C2.68 1.34 1.36 0.68 0 0 Z " fill="#7A5A38" transform="translate(307,243)"/>
<path d="M0 0 C0.66 0.33 1.32 0.66 2 1 C0.6875 2.5 0.6875 2.5 -1 4 C-1.99 4 -2.98 4 -4 4 C-4.33 4.99 -4.66 5.98 -5 7 C-6.65 7.33 -8.3 7.66 -10 8 C-6.91367389 4.7373124 -4.06516496 1.97764782 0 0 Z " fill="#EEECCD" transform="translate(150,87)"/>
<path d="M0 0 C1.5 1.375 1.5 1.375 3 3 C3 3.66 3 4.32 3 5 C1.35 5.66 -0.3 6.32 -2 7 C-2.125 4.625 -2.125 4.625 -2 2 C-1.34 1.34 -0.68 0.68 0 0 Z " fill="#86654F" transform="translate(108,199)"/>
<path d="M0 0 C-0.3125 2.375 -0.3125 2.375 -1 5 C-1.99 5.66 -2.98 6.32 -4 7 C-4 5.35 -4 3.7 -4 2 C-4.66 2 -5.32 2 -6 2 C-6 1.34 -6 0.68 -6 0 C-3.50907189 -1.24546405 -2.58919267 -0.7767578 0 0 Z " fill="#78553B" transform="translate(165,140)"/>
<path d="M0 0 C0.99 0.33 1.98 0.66 3 1 C2.67 3.31 2.34 5.62 2 8 C1.01 7.67 0.02 7.34 -1 7 C-0.67 4.69 -0.34 2.38 0 0 Z " fill="#7D5336" transform="translate(272,132)"/>
<path d="M0 0 C0.99 0.66 1.98 1.32 3 2 C1.35 3.98 -0.3 5.96 -2 8 C-4 5 -4 5 -4 3 C-3.01 2.67 -2.02 2.34 -1 2 C-0.67 1.34 -0.34 0.68 0 0 Z M-6 5 C-4 6 -4 6 -4 6 Z " fill="#8D705C" transform="translate(170,131)"/>
<path d="M0 0 C0.99 0 1.98 0 3 0 C3 0.66 3 1.32 3 2 C3.66 2 4.32 2 5 2 C4.67 2.99 4.34 3.98 4 5 C2.68 4.67 1.36 4.34 0 4 C-0.33 4.99 -0.66 5.98 -1 7 C-0.67 4.69 -0.34 2.38 0 0 Z " fill="#856149" transform="translate(158,309)"/>
<path d="M0 0 C0.625 1.875 0.625 1.875 1 4 C-1 6 -1 6 -3.625 6.125 C-4.40875 6.08375 -5.1925 6.0425 -6 6 C-4.75453595 2.26360784 -3.36595047 1.81243487 0 0 Z " fill="#78553B" transform="translate(142,304)"/>
<path d="M0 0 C0.66 0 1.32 0 2 0 C0.33248852 3.94139078 -2.22710649 6.7892812 -5 10 C-5.99 9.67 -6.98 9.34 -8 9 C-6.71034824 7.62437146 -5.37310707 6.29233607 -4 5 C-3.34 5 -2.68 5 -2 5 C-1.34 3.35 -0.68 1.7 0 0 Z " fill="#E6C9B3" transform="translate(325,187)"/>
<path d="M0 0 C2.91517292 1.07401108 4.77810176 1.77810176 7 4 C6.34 4 5.68 4 5 4 C5 4.66 5 5.32 5 6 C3.0625 5.25 3.0625 5.25 1 4 C0.25 1.875 0.25 1.875 0 0 Z " fill="#EBE8C7" transform="translate(346,81)"/>
<path d="M0 0 C-1 3 -1 3 -4 5 C-6.1875 4.625 -6.1875 4.625 -8 4 C-5.57415142 1.34311822 -3.76063134 0 0 0 Z " fill="#83654F" transform="translate(199,267)"/>
<path d="M0 0 C-4.61012242 2.95047835 -7.36529617 4.5497272 -13 4 C-10.81006393 1.81006393 -9.4012702 1.27802011 -6.5 0.3125 C-5.7059375 0.04050781 -4.911875 -0.23148437 -4.09375 -0.51171875 C-2 -1 -2 -1 0 0 Z " fill="#F7F2ED" transform="translate(207,258)"/>
<path d="M0 0 C-1.44390925 3.80666984 -3.34952803 5.26602582 -7 7 C-7.66 6.67 -8.32 6.34 -9 6 C-7.8803014 4.99406757 -6.7540588 3.9954151 -5.625 3 C-4.68527344 2.1646875 -4.68527344 2.1646875 -3.7265625 1.3125 C-2 0 -2 0 0 0 Z " fill="#ECE8CC" transform="translate(140,95)"/>
<path d="M0 0 C5.4611399 0.35233161 5.4611399 0.35233161 8 1 C9.5 3.0625 9.5 3.0625 10 5 C6.08788267 3.84414715 3.1254959 2.64465038 0 0 Z " fill="#ECE9CC" transform="translate(160,426)"/>
<path d="M0 0 C2.64 0 5.28 0 8 0 C8.33 1.65 8.66 3.3 9 5 C5.54074837 3.7508258 2.85306797 2.32472205 0 0 Z " fill="#8D735E" transform="translate(313,252)"/>
<path d="M0 0 C0 3.60573896 -0.81707462 4.41336566 -3 7.1875 C-3.556875 7.90292969 -4.11375 8.61835938 -4.6875 9.35546875 C-5.120625 9.89816406 -5.55375 10.44085938 -6 11 C-6.33 10.34 -6.66 9.68 -7 9 C-6.02180976 7.68677212 -5.0424189 6.37443848 -4.0625 5.0625 C-3.51722656 4.33160156 -2.97195313 3.60070312 -2.41015625 2.84765625 C-1 1 -1 1 0 0 Z " fill="#F4F2EE" transform="translate(361,208)"/>
<path d="M0 0 C0.33 0.66 0.66 1.32 1 2 C3.01669827 3.13350534 3.01669827 3.13350534 5 4 C4.01 4.66 3.02 5.32 2 6 C0.02 4.68 -1.96 3.36 -4 2 C-2.68 1.34 -1.36 0.68 0 0 Z " fill="#81604B" transform="translate(145,202)"/>
<path d="M0 0 C0.66 0.66 1.32 1.32 2 2 C1.77256695 4.95662966 1.38764062 6.55033688 -0.5625 8.8125 C-1.036875 9.204375 -1.51125 9.59625 -2 10 C-1.54177532 6.53058454 -1.10868317 3.32604951 0 0 Z " fill="#ECEBCC" transform="translate(67,193)"/>
<path d="M0 0 C0.66 0.33 1.32 0.66 2 1 C-0.31 3.31 -2.62 5.62 -5 8 C-5.66 7.67 -6.32 7.34 -7 7 C-4.78071806 4.09197539 -3.07030857 2.04687238 0 0 Z " fill="#F6F0EA" transform="translate(179,135)"/>
<path d="M0 0 C0.33 1.32 0.66 2.64 1 4 C0.01 4.33 -0.98 4.66 -2 5 C-2 5.99 -2 6.98 -2 8 C-2.99 8.33 -3.98 8.66 -5 9 C-3.7508258 5.54074837 -2.32472205 2.85306797 0 0 Z " fill="#EDEBCF" transform="translate(92,143)"/>
<path d="M0 0 C0.66 0 1.32 0 2 0 C3.2890625 1.53125 3.2890625 1.53125 4.625 3.5 C5.07101562 4.1496875 5.51703125 4.799375 5.9765625 5.46875 C6.31429688 5.9740625 6.65203125 6.479375 7 7 C4.03 6.505 4.03 6.505 1 6 C0.67 4.02 0.34 2.04 0 0 Z " fill="#EDDBCC" transform="translate(326,129)"/>
<path d="M0 0 C0.99 0.33 1.98 0.66 3 1 C0.3534665 3.6465335 -2.56221264 4.59941997 -6 6 C-6 4.68 -6 3.36 -6 2 C-4.02 2 -2.04 2 0 2 C0 1.34 0 0.68 0 0 Z " fill="#917768" transform="translate(184,122)"/>
<path d="M0 0 C-4.0188515 1.81242323 -7.61110675 3.33501617 -12 4 C-8.66437635 0.13769893 -4.98576775 -1.84658065 0 0 Z " fill="#896E4A" transform="translate(188,117)"/>
<path d="M0 0 C1.13643966 3.40931897 0.86747764 4.00335456 -0.4375 7.1875 C-0.86869141 8.26064453 -0.86869141 8.26064453 -1.30859375 9.35546875 C-1.53675781 9.89816406 -1.76492188 10.44085938 -2 11 C-3.31826804 7.04519588 -2.29536133 4.88608399 -1 1 C-0.67 0.67 -0.34 0.34 0 0 Z " fill="#EFEDD5" transform="translate(441,310)"/>
<path d="M0 0 C1.66611905 -0.042721 3.33382885 -0.04063832 5 0 C6 1 6 1 6.0625 3.5625 C6.041875 4.366875 6.02125 5.17125 6 6 C5.34 6 4.68 6 4 6 C3.71125 5.38125 3.4225 4.7625 3.125 4.125 C2.06279958 1.86674235 2.06279958 1.86674235 0 0 Z " fill="#7A5D49" transform="translate(199,266)"/>
<path d="M0 0 C0.66 0.33 1.32 0.66 2 1 C2.99 0.67 3.98 0.34 5 0 C5 0.99 5 1.98 5 3 C3.02 3.99 3.02 3.99 1 5 C0.01 3.68 -0.98 2.36 -2 1 C-1.34 0.67 -0.68 0.34 0 0 Z " fill="#DDB99E" transform="translate(144,257)"/>
<path d="M0 0 C0.66 0 1.32 0 2 0 C1.64950425 3.24208567 1.43778819 4.61527704 -1.0625 6.8125 C-1.701875 7.204375 -2.34125 7.59625 -3 8 C-1.125 2.25 -1.125 2.25 0 0 Z " fill="#E3C7B0" transform="translate(332,176)"/>
<path d="M0 0 C2 3 2 3 2 7 C1.01 7 0.02 7 -1 7 C-1.04254356 5.00045254 -1.04080783 2.99958364 -1 1 C-0.67 0.67 -0.34 0.34 0 0 Z " fill="#DDBBA1" transform="translate(157,221)"/>
<path d="M0 0 C1.875 0.3125 1.875 0.3125 4 1 C4.66 1.99 5.32 2.98 6 4 C5.67 4.99 5.34 5.98 5 7 C0 1.125 0 1.125 0 0 Z " fill="#836544" transform="translate(266,206)"/>
<path d="M0 0 C1.32 0.66 2.64 1.32 4 2 C2.35 3.32 0.7 4.64 -1 6 C-1.042721 4.33388095 -1.04063832 2.66617115 -1 1 C-0.67 0.67 -0.34 0.34 0 0 Z " fill="#8F7461" transform="translate(357,202)"/>
<path d="M0 0 C2.97 0.495 2.97 0.495 6 1 C6 1.99 6 2.98 6 4 C3.69 3.67 1.38 3.34 -1 3 C-0.67 2.01 -0.34 1.02 0 0 Z " fill="#785437" transform="translate(355,199)"/>
<path d="M0 0 C0.66 0.99 1.32 1.98 2 3 C1.2884375 3.6496875 1.2884375 3.6496875 0.5625 4.3125 C-1.23686957 6.02309613 -1.23686957 6.02309613 -2 9 C-2.66 9 -3.32 9 -4 9 C-2.94124926 5.59687262 -1.99097846 2.98646769 0 0 Z " fill="#EFEACE" transform="translate(83,157)"/>
<path d="M0 0 C0.66 0.99 1.32 1.98 2 3 C0.71034824 4.37562854 -0.62689293 5.70766393 -2 7 C-2.66 7 -3.32 7 -4 7 C-2.79618552 4.50638429 -1.54571278 2.31856917 0 0 Z " fill="#EDEBCD" transform="translate(99,133)"/>
</svg>
